Coordinates
version=1
nRows=26
nColumns=24
inDegrees=yes

Units are S.I. units (second, meters, Newtons, ...)
Angles are in degrees.

endheader
time	pelvis_tilt	pelvis_list	pelvis_rotation	pelvis_tx	pelvis_ty	pelvis_tz	hip_flexion_r	hip_adduction_r	hip_rotation_r	knee_angle_r	ankle_angle_r	subtalar_angle_r	mtp_angle_r	hip_flexion_l	hip_adduction_l	hip_rotation_l	knee_angle_l	ankle_angle_l	subtalar_angle_l	mtp_angle_l	lumbar_extension	lumbar_bending	lumbar_rotation
      1.09583333	     -5.84067115	     -1.82448633	     -3.34634434	      0.06952220	      1.01944258	      0.30639240	    -12.29350080	      3.17661666	      0.01051524	    -12.28794207	     19.50674008	      3.98043533	      8.65830643	     33.36979427	     -3.53097545	     -2.67564472	     -2.94927126	      9.96895604	      5.35621037	      4.64534140	     -7.45158368	      3.62659930	      6.07026964
      1.10000000	     -5.82969452	     -1.76209620	     -3.47102301	      0.07590521	      1.01878882	      0.30614567	    -12.45358154	      3.01391720	      0.04639441	    -12.72241201	     19.28996043	      4.07848906	      8.67212114	     33.40424256	     -3.46361602	     -2.60503314	     -3.57951795	      9.77011569	      5.29754396	      4.64559273	     -7.45862429	      3.46707037	      6.09209755
      1.10416667	     -5.83394030	     -1.66288674	     -3.59995013	      0.08235172	      1.01814158	      0.30586602	    -12.54446220	      2.79114308	     -0.10566336	    -13.26973899	     19.18067931	      4.49283445	      8.81146295	     33.42428214	     -3.35897689	     -2.49971708	     -4.17607388	      9.46052082	      5.12970875	      4.67161345	     -7.40420035	      3.21693780	      6.23929937
      1.10833333	     -5.82389716	     -1.58052008	     -3.71779995	      0.08881532	      1.01757843	      0.30560042	    -12.67222892	      2.60128281	     -0.13079444	    -13.76410458	     18.88251676	      4.58956754	      8.87467168	     33.43807027	     -3.26975149	     -2.42129807	     -4.81229364	      9.13110133	      5.01005556	      4.68142063	     -7.37119257	      3.01599406	      6.23146375
      1.11250000	     -5.83560605	     -1.46627727	     -3.82599944	      0.09529337	      1.01700762	      0.30526579	    -12.73332312	      2.36329011	     -0.28245782	    -14.34620856	     18.71939253	      4.97104087	      9.17989438	     33.45499926	     -3.13622479	     -2.23160455	     -5.42319154	      8.69841139	      4.65976042	      4.74185563	     -7.33092171	      2.76573441	      6.29910166
      1.11666667	     -5.82876881	     -1.36941797	     -3.93489186	      0.10181140	      1.01654710	      0.30499983	    -12.83232737	      2.15948131	     -0.30969113	    -14.88145428	     18.33199827	      5.02407518	      9.26425502	     33.47491396	     -3.03492037	     -2.19546817	     -6.10086139	      8.30305020	      4.55334864	      4.75365248	     -7.29217240	      2.54998742	      6.27596417
      1.12083333	     -5.87670305	     -1.25887769	     -4.02409506	      0.10833925	      1.01603019	      0.30463768	    -12.83810488	      1.93454354	     -0.42537251	    -15.47572157	     17.93353477	      5.18600124	     13.22745738	     33.52874146	     -2.89902468	     -1.96654180	     -6.72996889	      7.75811186	      4.10226985	      5.53434211	     -7.19507011	      2.30752190	      6.26837663
      1.12500000	     -5.87452420	     -1.12012013	     -4.12737887	      0.11489841	      1.01565935	      0.30431628	    -12.87276008	      1.66919497	     -0.56448404	    -16.12105094	     17.59623632	      5.44704098	     13.31382625	     33.56287933	     -2.75848923	     -2.00099989	     -7.45319726	      7.32670255	      3.98913887	      5.53651209	     -7.15556433	      2.02004688	      6.29222421
      1.12916667	     -5.87034248	     -1.00717666	     -4.21065821	      0.12145895	      1.01535533	      0.30397334	    -12.91118640	      1.44388145	     -0.64801000	    -16.75361134	     17.11286641	      5.51330584	     13.35524637	     33.60585845	     -2.63767541	     -2.01731855	     -8.20238995	      6.88534220	      3.86797414	      5.53243059	     -7.10907210	      1.78244367	      6.26276415
      1.13333333	     -5.93686228	     -0.85541088	     -4.28913911	      0.12804398	      1.01496545	      0.30357386	    -12.81799434	      1.16514353	     -0.84236263	    -17.50019518	     16.75843243	      5.83514225	     13.60721515	     33.71550182	     -2.47394826	     -1.96166004	     -8.94104630	      6.38475342	      3.56676354	      5.54176112	     -6.97872277	      1.48042528	      6.25900306
      1.13750000	     -5.94148417	     -0.72391703	     -4.35136983	      0.13461675	      1.01476636	      0.30316941	    -12.79698768	      0.91582278	     -0.97140595	    -18.20857454	     16.15619970	      5.89527798	     16.97323243	     33.75969831	     -2.32421122	     -1.90943907	     -9.68267722	      5.87738295	      3.28478212	      5.72780496	     -6.93335317	      1.22055171	      6.20467649
      1.14166667	     -5.97901246	     -0.56977796	     -4.41092027	      0.14122546	      1.01455016	      0.30275581	    -12.70372540	      0.63837818	     -1.14760696	    -18.99671494	     15.64412505	      6.07949988	     17.04452140	     33.87026788	     -2.16619225	     -1.98632273	    -10.50562600	      5.48875289	      3.18220526	      5.71987998	     -6.83016656	      0.91210081	      6.16690279
      1.14583333	     -5.99385621	     -0.42344661	     -4.45864532	      0.14782831	      1.01444580	      0.30233031	    -12.62248801	      0.37379851	     -1.29228094	    -19.79495934	     15.02372956	      6.19250427	     17.11868145	     33.95152469	     -2.01146538	     -2.03894781	    -11.32164294	      5.09962877	      3.06634741	      5.71018695	     -6.76670961	      0.61039827	      6.11402630
      1.15000000	     -6.02411097	     -0.26595380	     -4.49736886	      0.15442192	      1.01435202	      0.30186489	    -12.48296769	      0.09099883	     -1.48452745	    -20.67108690	     14.42756672	      6.35849333	     17.25576098	     34.05685876	     -1.84393574	     -2.09726338	    -12.15865165	      4.73823444	      2.93257629	      5.69678750	     -6.67805008	      0.30421952	      6.05396327
      1.15416667	     -6.06674447	     -0.10677721	     -4.52784175	      0.16098127	      1.01426780	      0.30133486	    -12.28007792	     -0.20516937	     -1.74039406	    -21.64256423	     13.88612171	      6.59340234	     17.60864031	     34.18447686	     -1.67109473	     -2.15616814	    -13.01647361	      4.41266368	      2.77026068	      5.66901178	     -6.57427432	      0.02499876	      5.98621334
      1.15833333	     -6.03616314	      0.06599330	     -4.54692043	      0.16756083	      1.01439575	      0.30081762	    -12.15824213	     -0.51441046	     -1.95604912	    -22.57610142	     13.10977782	      6.67319966	     21.66147057	     34.21069294	     -1.47695939	     -2.20342540	    -13.83349618	      4.12720154	      2.61834932	      5.35286891	     -6.57455723	     -0.30555437	      5.90987145
      1.16250000	     -6.07421030	      0.21509321	     -4.55581808	      0.17410676	      1.01443475	      0.30027727	    -11.92159973	     -0.78832320	     -2.15185188	    -23.59630863	     12.39451790	      6.75475670	     21.70981836	     34.33281777	     -1.31346827	     -2.28380959	    -14.70016552	      3.88771804	      2.57873498	      5.34046332	     -6.47898788	     -0.58753615	      5.83688501
      1.16666667	     -6.09067423	      0.37844490	     -4.56014547	      0.18063907	      1.01455781	      0.29971299	    -11.67442974	     -1.08699959	     -2.37375466	    -24.67030180	     11.67509187	      6.89318106	     21.82953772	     34.41857217	     -1.13208378	     -2.36799782	    -15.54271587	      3.68620997	      2.52591550	      5.31605682	     -6.41819770	     -0.89769173	      5.75243940
      1.17083333	     -6.08130380	      0.54222752	     -4.55098279	      0.18714996	      1.01478237	      0.29913494	    -11.43474361	     -1.38281305	     -2.57933900	    -25.76799181	     10.86491823	      6.95770605	     21.90575851	     34.45702480	     -0.93925680	     -2.42008863	    -16.34376870	      3.51146060	      2.47450944	      5.29795550	     -6.39671297	     -1.21921628	      5.67176469
      1.17500000	     -6.10866030	      0.71469148	     -4.54138139	      0.19361777	      1.01495516	      0.29850337	    -11.09629764	     -1.70379232	     -2.84152236	    -26.97811198	     10.15021761	      7.10896186	     22.11035202	     34.53224279	     -0.74036821	     -2.49608856	    -17.13922571	      3.35660750	      2.43441395	      5.25350311	     -6.32005669	     -1.51106958	      5.57432317
      1.17916667	     -6.06829334	      0.88489365	     -4.50831716	      0.20004966	      1.01528905	      0.29784690	    -10.82292671	     -2.01998836	     -3.09073493	    -28.17694165	      9.28169381	      7.16247796	     25.03143023	     34.51203003	     -0.52040500	     -2.52493860	    -17.88355098	      3.25133314	      2.36560793	      4.59638289	     -6.34325076	     -1.82745672	      5.45225915
      1.18333333	     -6.05264915	      1.04895292	     -4.48204450	      0.20644775	      1.01562821	      0.29721322	    -10.48808488	     -2.32526910	     -3.30363203	    -29.43182521	      8.42469188	      7.18404082	     25.03664594	     34.50406642	     -0.31623795	     -2.57955743	    -18.60042020	      3.15506434	      2.35805185	      4.58869079	     -6.33765848	     -2.14246371	      5.37599289
      1.18750000	     -6.02564761	      1.21532284	     -4.44394145	      0.21279519	      1.01600620	      0.29653977	    -10.13157928	     -2.63938168	     -3.53573998	    -30.74161548	      7.58095305	      7.21832751	     25.04998719	     34.46728167	     -0.09800573	     -2.62111877	    -19.27747145	      3.08341415	      2.34400855	      4.57657289	     -6.34843765	     -2.45007788	      5.28353414
      1.19166667	     -5.97283575	      1.36826885	     -4.39518754	      0.21908301	      1.01644782	      0.29583492	     -9.77693509	     -2.94299774	     -3.77701007	    -32.08441893	      6.73059619	      7.20918759	     25.05608348	     34.39431733	      0.11645620	     -2.66876002	    -19.93514068	      3.04107390	      2.30825727	      4.56587948	     -6.39288084	     -2.72581927	      5.19513817
      1.19583333	     -5.97632766	      1.55063896	     -4.35269803	      0.22534493	      1.01683180	      0.29512955	     -9.31766849	     -3.28167040	     -4.00849295	    -33.49756888	      5.90794756	      7.25205738	     25.11070779	     34.33895129	      0.36269666	     -2.66861642	    -20.49709047	      2.97795395	      2.26566641	      4.50558459	     -6.37024318	     -3.04061809	      5.05508650
      1.20000000	     -5.91848394	      1.71949627	     -4.29639470	      0.23154903	      1.01735201	      0.29442325	     -8.91306272	     -3.60235184	     -4.22917823	    -34.90794191	      5.02801624	      7.17601849	     25.11372625	     34.20507875	      0.60671990	     -2.68075526	    -21.03040975	      2.95162076	      2.25253616	      4.47791222	     -6.43246474	     -3.35061669	      4.95028594
